# xmcd CD database file
#
# Track frame offsets:
#	150
#	22312
#	37937
#	61397
#	75310
#	87600
#	94810
#	106660
#	124575
#	137490
#	143185
#	150407
#	159047
#	165085
#
# Disc length: 2430 seconds
#
# Revision: 0
# Processed by: cddbd v1.5.1PL2 Copyright (c) Steve Scherf et al.
# Submitted via: CDex 1.51
#
DISCID=9b097c0e
DTITLE=Grant Clarkson and Sean Hart - The Red Carpet
DYEAR=1998
DGENRE=Jazz
TTITLE0=Red Carpet Overture
TTITLE1=Millenium
TTITLE2=Psydecar
TTITLE3=Around The World
TTITLE4=Not Christmas Yet
TTITLE5=The River
TTITLE6=Babylon
TTITLE7=Streets
TTITLE8=I Am in Luxury
TTITLE9=Reality
TTITLE10=No Big Deal
TTITLE11=Energy
TTITLE12=Red Carpet Outro
TTITLE13=Westside
EXTD=YEAR: 1998
EXTT0=
EXTT1=
EXTT2=
EXTT3=
EXTT4=
EXTT5=
EXTT6=
EXTT7=
EXTT8=
EXTT9=
EXTT10=
EXTT11=
EXTT12=
EXTT13=
PLAYORDER=
